<svg xmlns="http://www.w3.org/2000/svg" viewBox="0 0 170 26">

  <g id="consilium_logo_rgb" transform="translate(-212 -1346)">
    <path id="Path_341" data-name="Path 341" d="M251.555,81.326q.27.551.713,1.772h-9.523a8.9,8.9,0,0,0-6.077,2.295,7.308,7.308,0,0,0-2.6,5.716,10.069,10.069,0,0,0,.866,4.218,13.505,13.505,0,0,0,3.382,4.156,14.013,14.013,0,0,1-4.925-3.935,10.358,10.358,0,0,1,1.093-12.734,9.209,9.209,0,0,1,6.759-2.779h9.52A9.988,9.988,0,0,1,251.555,81.326ZM234.238,97.971a11.1,11.1,0,0,1-2.727-3.343,10.4,10.4,0,0,1-1.016-4.891,10.729,10.729,0,0,1,3-7.65,10.115,10.115,0,0,1,7.683-3.174h8.778q-.583-.625-1.145-1.274a15.017,15.017,0,0,0-3.754-2.518,11.59,11.59,0,0,0-5.12-1.082,12.874,12.874,0,0,0-9.356,3.8,13.116,13.116,0,0,0-.671,17.9,12.93,12.93,0,0,0,7.141,4.3Q235.646,99,234.238,97.971Zm18.631-12.155q.062.648.061,1.336h-8.983a6.587,6.587,0,0,0-4.541,1.65,5.747,5.747,0,0,0-1.855,4.527,6.327,6.327,0,0,0,.657,2.918,9.641,9.641,0,0,0,1.217,1.922q.557.633.836.975a6.589,6.589,0,0,1-3.457-2.589,8.471,8.471,0,0,1-1.662-5.349,6.511,6.511,0,0,1,2.251-4.955,7.5,7.5,0,0,1,5.246-2.075h9.909A10.542,10.542,0,0,1,252.869,85.816Zm-2.516,10.073a7.517,7.517,0,0,1-6.128,3.26,5.778,5.778,0,0,1-3.72-1.539,5.014,5.014,0,0,1-1.835-4.037,4.66,4.66,0,0,1,1.624-4.015,5.718,5.718,0,0,1,3.45-1.2h9.126A11.979,11.979,0,0,1,250.353,95.889Z" transform="translate(-14.71 1271.961)" fill="#00579d"/>
    <path id="Path_342" data-name="Path 342" d="M277.529,79.345a4.006,4.006,0,0,1,.753.05c.154.034.257.058.311.071l-1.044,2.079c-.027-.052-.168-.1-.422-.128s-.442-.062-.562-.088h-4.858a4.6,4.6,0,0,0-1.507.2,5.405,5.405,0,0,0-.963.441,3.1,3.1,0,0,0-.763.672,4.731,4.731,0,0,0-.542.773q-.02,0-.642,1.5t-1.335,3.26q-.712,1.755-.894,2.387a3.957,3.957,0,0,0-.18,1.054,1.688,1.688,0,0,0,.08.612c.053.126.13.287.231.481a1.236,1.236,0,0,0,.733.492,3.4,3.4,0,0,0,1.1.2h4.939a2.809,2.809,0,0,0,.673-.065,2.39,2.39,0,0,0,.431-.151q-.182.531-.441,1.154c-.175.415-.288.684-.342.806a.554.554,0,0,1-.191.255.536.536,0,0,1-.291.071h-9.315a4.062,4.062,0,0,1-1.557-.27,2.516,2.516,0,0,1-1.063-.813,3.709,3.709,0,0,1-.522-.843,1.676,1.676,0,0,1-.111-.581q.181-.824.362-1.646l2.569-7.063a7.705,7.705,0,0,1,1.2-2.257,6.533,6.533,0,0,1,1.727-1.6,5.86,5.86,0,0,1,1.636-.8,5.775,5.775,0,0,1,1.7-.261Z" transform="translate(-14.71 1271.961)" fill="#707173"/>
    <path id="Path_343" data-name="Path 343" d="M283.516,93.638a5.341,5.341,0,0,1-.993.071h-1.466a1.645,1.645,0,0,1-1.4-.515,1.6,1.6,0,0,1-.381-.9,1.988,1.988,0,0,1,.12-.606l1.766-4.486a2.41,2.41,0,0,1,1.1-1.282,4.773,4.773,0,0,1,1.084-.465,3.822,3.822,0,0,1,.783-.071h1.486a2.6,2.6,0,0,1,.913.161.91.91,0,0,1,.532.375q.1.211.141.312a.948.948,0,0,1,.04.324,1.893,1.893,0,0,1-.061.5c-.04.149-.106.35-.2.606l-1.867,4.587a4.51,4.51,0,0,1-.381.606,1.836,1.836,0,0,1-.442.384A1.956,1.956,0,0,1,283.516,93.638Zm-2.791-9.9a6.058,6.058,0,0,0-1.8.7,5.185,5.185,0,0,0-1.6,1.367,12.808,12.808,0,0,0-1.065,1.608,14.124,14.124,0,0,0-.7,1.448q-.271.663-.692,1.709a8.935,8.935,0,0,0-.453,1.247,4.846,4.846,0,0,0-.21,1.346,2.668,2.668,0,0,0,.08.674,1.942,1.942,0,0,0,.371.684,2.28,2.28,0,0,0,1.024.643,5.7,5.7,0,0,0,1.938.271h7.268a5.767,5.767,0,0,0,1.757-.241,4.411,4.411,0,0,0,1.325-.673,8.98,8.98,0,0,0,.923-.785,4.415,4.415,0,0,0,.612-.763,25.3,25.3,0,0,0,1.094-2.283q.834-1.869,1.1-2.593a11.04,11.04,0,0,0,.371-1.207,4.555,4.555,0,0,0,.111-1.025,2.244,2.244,0,0,0-.4-1.277,2,2,0,0,0-1.185-.8,9.283,9.283,0,0,0-2.268-.211h-5.039A14.793,14.793,0,0,0,280.725,83.733Z" transform="translate(-14.71 1271.961)" fill="#707173"/>
    <path id="Path_344" data-name="Path 344" d="M300.385,83.529c.174.048.261.1.261.143v.1l-.06.383a3.459,3.459,0,0,1,.352-.232,4.56,4.56,0,0,1,.471-.2,3,3,0,0,1,.522-.159,3.416,3.416,0,0,1,.522-.03h4.618a7.962,7.962,0,0,1,1.666.312,1.467,1.467,0,0,1,.883.654,2.9,2.9,0,0,1,.3.724,2.591,2.591,0,0,1,.06.542,3.5,3.5,0,0,1-.09.855q-.092.351-.3.985t-1.084,2.906q-.873,2.274-.974,2.534c-.067.175-.167.456-.3.845s-.221.667-.261.835a1.779,1.779,0,0,0-.06.372,1.081,1.081,0,0,0,.06.341h-5.22c.08-.107.17-.242.271-.4a2.431,2.431,0,0,0,.252-.586l2.61-6.747a2.565,2.565,0,0,0,.241-1.151,1.3,1.3,0,0,0-.332-.959,1.5,1.5,0,0,0-1.094-.334H301.53a3.425,3.425,0,0,0-.482.031,1.445,1.445,0,0,0-.432.131,1.217,1.217,0,0,0-.432.413,4.69,4.69,0,0,0-.481,1.018q-.261.705-1.024,2.661t-1.385,3.558q-.624,1.6-.643,1.683l-.141.685h-5.139c.053-.067.116-.154.19-.262s.177-.275.312-.5q.441-1.168,1.1-2.885t1.586-4.086q.924-2.37.984-2.472a6.432,6.432,0,0,0,.291-1.07c.033-.242.057-.45.07-.625Z" transform="translate(-14.71 1271.961)" fill="#707173"/>
    <path id="Path_345" data-name="Path 345" d="M328.3,83.483c.107.014.154.054.141.121l-.582,1.65a.95.95,0,0,0-.242-.089,2.5,2.5,0,0,0-.541-.04h-7.308q-.443.059-.883.108a2.091,2.091,0,0,0-.623.136,1.426,1.426,0,0,0-.362.263c-.121.118-.207.2-.26.264a1.345,1.345,0,0,0-.191.4,1.8,1.8,0,0,0-.11.605.611.611,0,0,0,.1.36.7.7,0,0,0,.371.235,2.046,2.046,0,0,0,.633.088H324.3a4.425,4.425,0,0,1,.923.09,1.386,1.386,0,0,1,.7.372,1.284,1.284,0,0,1,.351.532,3.106,3.106,0,0,1,.071.774v.281a7.74,7.74,0,0,1-.813,2.611,8.165,8.165,0,0,1-1.346,1.888,4.372,4.372,0,0,1-1.505,1.044,4.685,4.685,0,0,1-1.717.3l-11,.087a1.233,1.233,0,0,1-.3-.041l.743-1.814.9.129h6.2a9.211,9.211,0,0,0,1.495-.111,3.044,3.044,0,0,0,1.075-.354,2.451,2.451,0,0,0,.762-.808,1.957,1.957,0,0,0,.362-1.03c0-.257-.077-.418-.231-.486a1.889,1.889,0,0,0-.713-.1q-1.425-.013-3.1-.028t-3.122-.015a5.458,5.458,0,0,1-.994-.071,1.3,1.3,0,0,1-.672-.365,1.334,1.334,0,0,1-.3-.983,6.073,6.073,0,0,1,.361-1.856,8.322,8.322,0,0,1,.894-1.906,5.56,5.56,0,0,1,1.476-1.491,4.934,4.934,0,0,1,1.535-.567,8.994,8.994,0,0,1,1.978-.223h9.617C328.072,83.456,328.193,83.47,328.3,83.483Z" transform="translate(-14.71 1271.961)" fill="#707173"/>
    <path id="Path_346" data-name="Path 346" d="M331.828,83.486h4.216c.08.013.113.054.1.122a.823.823,0,0,1-.1.242l-3.594,9.8q-.141.507-.271,1.054a1.362,1.362,0,0,0-.05.728h-5.2a2.621,2.621,0,0,0,.352-.627q.17-.4.311-.77l3.453-9.68a3.693,3.693,0,0,0,.06-.527.984.984,0,0,0-.06-.344Zm1.385-3.753h4.176c.12,0,.154.067.1.2l-.782,2.108c-.054.184-.091.308-.111.374a.1.1,0,0,1-.131.079h-4.316c-.148.013-.221-.021-.221-.1l.06-.28.864-2.241C332.9,79.78,333.026,79.733,333.213,79.733Z" transform="translate(-14.71 1271.961)" fill="#707173"/>
    <path id="Path_347" data-name="Path 347" d="M341.917,79.345h4.277q-.1.182-.221.432t-.492,1.237q-.372.985-2,5.239t-2.339,6.134q-.713,1.881-.773,2.092c-.04.141-.077.3-.111.473a2.575,2.575,0,0,0-.049.321.352.352,0,0,0,.04.161h-5.2c.067-.107.137-.227.211-.362a3.782,3.782,0,0,0,.231-.543l5.521-14.52a1.481,1.481,0,0,0,.091-.312.911.911,0,0,0-.01-.352Z" transform="translate(-14.71 1271.961)" fill="#707173"/>
    <path id="Path_348" data-name="Path 348" d="M348.33,83.486h4.216c.08.013.114.054.1.122a.858.858,0,0,1-.1.242l-3.593,9.8q-.141.507-.271,1.054a1.365,1.365,0,0,0-.051.728h-5.2a2.656,2.656,0,0,0,.351-.627q.171-.4.312-.77l3.452-9.68a3.73,3.73,0,0,0,.061-.527.984.984,0,0,0-.061-.344Zm1.386-3.753h4.175c.121,0,.154.067.1.2l-.783,2.108c-.054.184-.091.308-.111.374a.1.1,0,0,1-.13.079h-4.316c-.148.013-.222-.021-.222-.1l.061-.28.863-2.241C349.408,79.78,349.528,79.733,349.716,79.733Z" transform="translate(-14.71 1271.961)" fill="#707173"/>
    <path id="Path_349" data-name="Path 349" d="M361.314,95.434c-.054.014-.087,0-.1-.049a.946.946,0,0,1-.03-.129.9.9,0,0,1-.01-.15.379.379,0,0,0-.06-.189l-.643.332a2.464,2.464,0,0,1-.983.228h-4.979a9.357,9.357,0,0,1-1.607-.11,1.2,1.2,0,0,1-.883-.624,4.518,4.518,0,0,1-.352-.744,2.172,2.172,0,0,1-.07-.614,3.717,3.717,0,0,1,.121-.985q.12-.442.341-1.127l1.968-5.451c.133-.349.234-.624.3-.824s.129-.41.19-.624.094-.345.1-.392a1.189,1.189,0,0,0,.01-.171.826.826,0,0,0-.06-.282h5.079a3.6,3.6,0,0,0-.17.353q-.092.213-.211.595l-2.429,6.8a4.605,4.605,0,0,0-.262.777,3.378,3.378,0,0,0-.1.8.96.96,0,0,0,.281.706,1.263,1.263,0,0,0,.924.282h2.449a6.4,6.4,0,0,0,.652-.03,1.067,1.067,0,0,0,.593-.3,2.888,2.888,0,0,0,.6-1.138q.3-.865,1.033-2.93t1.245-3.563a13.28,13.28,0,0,0,.512-1.661,3.224,3.224,0,0,0,.09-.463c.007-.1.01-.168.01-.222h5.079a2.328,2.328,0,0,0-.16.292,2.147,2.147,0,0,0-.141.432q-.422,1.187-1.365,3.912t-1.406,4.042q-.462,1.317-.622,1.759a3.992,3.992,0,0,0-.211.825c-.033.254-.057.469-.07.643Z" transform="translate(-14.71 1271.961)" fill="#707173"/>
    <path id="Path_350" data-name="Path 350" d="M376.968,83.558c.174.038.262.075.262.113v.076l-.061.382a4.418,4.418,0,0,1,.752-.419,2.588,2.588,0,0,1,.583-.191,3.7,3.7,0,0,1,.552-.033h5.8a2.709,2.709,0,0,1,1.165.3,2.171,2.171,0,0,1,.742,1.006,1.342,1.342,0,0,0,.2-.1,7.7,7.7,0,0,1,.823-.806,3.492,3.492,0,0,1,.753-.321,3.223,3.223,0,0,1,.793-.081h5.5a1.441,1.441,0,0,1,.673.151,2.742,2.742,0,0,1,.612.465,1.871,1.871,0,0,1,.472.829,2.174,2.174,0,0,1,.11.84,6.751,6.751,0,0,1-.562,2.253q-.562,1.446-1.1,2.841l-1.284,3.518a3.816,3.816,0,0,0-.181.647c-.04.216-.04.35,0,.4h-5.138a1.9,1.9,0,0,0,.241-.433q.16-.353.221-.514l2.329-6.009q.06-.181.381-1.018a3.947,3.947,0,0,0,.322-1.24v-.182a1.9,1.9,0,0,1-.1-.282.6.6,0,0,0-.261-.332,1.139,1.139,0,0,0-.411-.172,3.954,3.954,0,0,0-.673-.041h-2.53a1.831,1.831,0,0,0-.883.423,2.978,2.978,0,0,0-.452.838q-.19.515-.341.937t-.984,2.541q-.833,2.117-1.134,2.944a12.973,12.973,0,0,0-.4,1.24q-.1.414-.16.615a2.067,2.067,0,0,0-.07.272,1.027,1.027,0,0,0-.01.151.782.782,0,0,0,.059.262h-5.36a3.664,3.664,0,0,0,.251-.395,4.083,4.083,0,0,0,.271-.639l2.59-6.714a6.283,6.283,0,0,0,.2-.771,4.043,4.043,0,0,0,.1-.771.9.9,0,0,0-.291-.638,1.437,1.437,0,0,0-1.034-.295h-2.168a3.512,3.512,0,0,0-.523.031,1.253,1.253,0,0,0-.431.162,1.339,1.339,0,0,0-.432.436,5.83,5.83,0,0,0-.472.994l-.6,1.531q-.332.843-1.385,3.6t-1.094,2.9a1.1,1.1,0,0,0-.041.3v.263h-5.179a1.269,1.269,0,0,0,.13-.171c.061-.087.164-.265.312-.533q.462-1.187,1.124-2.9t1.536-3.985q.873-2.275,1.034-2.6a5.091,5.091,0,0,0,.251-1.057c.02-.248.03-.46.03-.634Z" transform="translate(-14.71 1271.961)" fill="#707173"/>
  </g>
</svg>
